Coordinates
version=1
nRows=5
nColumns=40
inDegrees=yes

Units are S.I. units (second, meters, Newtons, ...)
Angles are in degrees.

endheader
time	pelvis_tilt	pelvis_list	pelvis_rotation	pelvis_tx	pelvis_ty	pelvis_tz	hip_flexion_r	hip_adduction_r	hip_rotation_r	knee_angle_r	knee_angle_r_beta	ankle_angle_r	subtalar_angle_r	mtp_angle_r	hip_flexion_l	hip_adduction_l	hip_rotation_l	knee_angle_l	knee_angle_l_beta	ankle_angle_l	subtalar_angle_l	mtp_angle_l	lumbar_extension	lumbar_bending	lumbar_rotation	arm_flex_r	arm_add_r	arm_rot_r	elbow_flex_r	pro_sup_r	wrist_flex_r	wrist_dev_r	arm_flex_l	arm_add_l	arm_rot_l	elbow_flex_l	pro_sup_l	wrist_flex_l	wrist_dev_l
     13.24000000	     -2.32322567	     -1.74030432	     -1.09260795	      1.01581787	      0.93156540	      0.41906238	     35.20498959	     -8.95858313	     -7.71404208	     71.86573559	     71.86573559	     -1.14895289	    -18.76251040	      8.22912326	     14.61872703	     -2.82655823	     -9.17987853	     20.65101421	     20.65101421	     10.48020479	    -12.06609490	     -6.17499811	    -13.70747248	      1.32563807	      1.20640321	     -3.82336412	    -14.50339541	     -4.24463735	     82.93473037	     45.16875071	      0.00000000	      0.00000000	     12.98116673	    -12.61358722	      4.23530630	     43.70684201	     45.62727890	      0.00000000	      0.00000000
     13.25135714	     -2.40479707	     -1.77792444	     -1.34417503	      1.01447140	      0.93211390	      0.41869864	     36.31048670	     -8.71575255	     -7.48625698	     69.80903217	     69.80903217	     -1.11683389	    -18.64662988	      7.77171823	     13.79938432	     -2.75686791	     -9.24412250	     19.92303172	     19.92303172	     10.44898605	    -12.28333025	     -6.68822796	    -13.80314948	      1.41233910	      1.51637327	     -4.77579763	    -14.45393088	     -4.94025544	     77.69627642	     45.35758001	      0.00000000	      0.00000000	     14.59912843	    -12.94509977	      4.46738081	     45.83317317	     45.68225532	      0.00000000	      0.00000000
     13.26271429	     -2.40272046	     -1.87338515	     -1.62733359	      1.01322771	      0.93274547	      0.41839636	     37.12707352	     -8.35272928	     -7.27256551	     67.46420038	     67.46420038	     -1.07868794	    -18.49385948	      7.70104824	     12.88436328	     -2.79162881	     -9.51901053	     19.22509578	     19.22509578	     10.68066266	    -12.04031444	     -6.89076565	    -14.06530776	      1.60565224	      2.31140608	     -6.36749453	    -14.99269464	     -4.99093800	     74.07183006	     45.47052230	      0.00000000	      0.00000000	     16.49439701	    -12.85228342	      4.41399836	     47.84836377	     45.73827648	      0.00000000	      0.00000000
     13.27407143	     -2.48331831	     -1.91445855	     -1.84458324	      1.01204407	      0.93319446	      0.41814482	     37.81138736	     -8.06641379	     -7.12039340	     64.79541321	     64.79541321	     -1.35366383	    -18.33136305	      6.77358978	     12.06757771	     -2.76753470	     -9.76228854	     18.48512081	     18.48512081	     10.58871468	    -11.89749287	     -7.80437893	    -14.11737751	      1.62285180	      1.77800836	     -5.53179430	    -14.26383590	     -6.04234182	     66.16653356	     45.75909154	      0.00000000	      0.00000000	     17.20902326	    -13.96380348	      4.89113860	     51.18592039	     45.78916598	      0.00000000	      0.00000000
     13.28542857	     -2.47581500	     -2.00820467	     -2.10397210	      1.01096585	      0.93366042	      0.41793731	     38.22577515	     -7.66501671	     -6.94639108	     61.83813161	     61.83813161	     -1.39613227	    -18.00658799	      6.78353264	     11.15254379	     -2.78686962	     -9.99719529	     17.77390621	     17.77390621	     10.79765787	    -11.66943502	     -7.96438199	    -14.39352575	      1.81274363	      2.51726816	     -6.89985894	    -14.80503180	     -5.97435929	     62.91630762	     45.85517046	      0.00000000	      0.00000000	     18.95150317	    -13.82852656	      4.72559436	     53.30334893	     45.85789735	      0.00000000	      0.00000000
